# xmcd
# 
# Track frame offsets:
#     150
#     22100
#     25202
#     30505
#     57285
#     59855
#     66025
#     107987
#     111652
#     122915
#     135567
#     161797
#     164322
#     170532
#     180147
#     208730
# 
# Disc length: 3518
# 
# Revision: 1
# Processed by: cddbd v1.5.2PL0 Copyright (c) Steve Scherf et al.
# Submitted via: fre:ac v1.0.17
# 
DISCID=eb0dbc10
DTITLE=Theatre Brook - TYPHOON SHELTER
DYEAR=0
DGENRE=サウンドトラック (一般/日本)
TTITLE0=TYPHOON SHELTER(Short Version)
TTITLE1=アジトまでの道
TTITLE2=Bring On The Water
TTITLE3=Bring Some Water(Original Version)
TTITLE4=Temple Street
TTITLE5=船の上の日々
TTITLE6=Bring Some Water(London Electricity Remix)
TTITLE7=銅鑼湾
TTITLE8=The Longest Day Of Mr.Chen
TTITLE9=Anita "30,June'97"
TTITLE10=まばたき(Up Bustle and Out Remix)
TTITLE11=廟街
TTITLE12=ホンコンのアジト
TTITLE13=Victria Peak
TTITLE14=まばたき(TYPHOON SHELTER Mix)
TTITLE15=TYPHOON SHELTER(Original Version)
EXTD=
EXTT0=
EXTT1=
EXTT2=
EXTT3=
EXTT4=
EXTT5=
EXTT6=
EXTT7=
EXTT8=
EXTT9=
EXTT10=
EXTT11=
EXTT12=
EXTT13=
EXTT14=
EXTT15=
PLAYORDER=
